<svg xmlns="http://www.w3.org/2000/svg" xmlns:xlink="http://www.w3.org/1999/xlink" width="54.887" height="129.301" viewBox="0 0 54.887 129.301">
  <defs>
    <clipPath id="clip-path">
      <rect id="Rectángulo_342951" data-name="Rectángulo 342951" width="54.887" height="129.301" fill="none"/>
    </clipPath>
  </defs>
  <g id="Grupo_1102157" data-name="Grupo 1102157" transform="translate(-55.773 -6)">
    <g id="Grupo_981420" data-name="Grupo 981420" transform="translate(55.773 6)" clip-path="url(#clip-path)">
      <g id="Grupo_981419" data-name="Grupo 981419">
        <g id="Grupo_981418" data-name="Grupo 981418" clip-path="url(#clip-path)">
          <path id="Trazado_655593" data-name="Trazado 655593" d="M9.891,2.413c.128-.425.537-.56,1-.288l40.2,23.21a2.111,2.111,0,0,1,.76.824l3.243-1.9a2.137,2.137,0,0,0-.752-.8L14.151.252a2.275,2.275,0,0,0-2.082,0L10.892.924a2.346,2.346,0,0,0-1,1.489" transform="translate(-0.496 0)" fill="#1a0b38"/>
          <path id="Trazado_655595" data-name="Trazado 655595" d="M9.849,2.831l.008,40.207a2.312,2.312,0,0,0,1.033,1.8L48.88,66.769l2.209,1.281a1.053,1.053,0,0,0,.161.08c.009,0,.016.008.024.008.5.177.857-.1.857-.689V27.242a2.055,2.055,0,0,0-.28-.976,2.093,2.093,0,0,0-.761-.824L10.89,2.231c-.464-.273-.873-.137-1,.288-.008.025-.008.048-.016.081a1.129,1.129,0,0,0-.024.232" transform="translate(-0.494 -0.105)" fill="#3d2079"/>
          <path id="Trazado_655596" data-name="Trazado 655596" d="M53.463,69.315c.04.016.08.032.128.048a.707.707,0,0,0,.177.047,1.544,1.544,0,0,0,.272.048c.088.008.184.016.273.016a2.626,2.626,0,0,0,.56-.065,1.85,1.85,0,0,0,.488-.184l1.169-.68a2.288,2.288,0,0,0,1.041-1.8v-40.2a2.143,2.143,0,0,0-.289-1l-3.243,1.9a2.069,2.069,0,0,1,.28.977V68.627c0,.584-.36.865-.857.689" transform="translate(-2.683 -1.282)" fill="#0b031d"/>
          <path id="Trazado_655598" data-name="Trazado 655598" d="M10.447,34.653.189,25.019a.709.709,0,0,1,.583-1.186l9.675.843Z" transform="translate(0 -1.196)" fill="#3d2079"/>
          <path id="Trazado_655599" data-name="Trazado 655599" d="M15.323,21.735l-4.853,2.8L.793,23.686a.734.734,0,0,0-.334.048c.774-.456,4.438-2.569,4.788-2.757a.671.671,0,0,1,.407-.081Z" transform="translate(-0.023 -1.049)" fill="#1a0b38"/>
          <path id="Trazado_655601" data-name="Trazado 655601" d="M48.764,61.238V34.7a1.368,1.368,0,0,0-.619-1.071l-1.665-.961c-.342-.2-.619-.038-.619.357V59.562a1.368,1.368,0,0,0,.619,1.071l1.664.961c.342.2.619.037.619-.357" transform="translate(-2.302 -1.635)" fill="#fafafa"/>
          <path id="Trazado_655602" data-name="Trazado 655602" d="M42.652,57.531V27.638a1.368,1.368,0,0,0-.619-1.071l-1.665-.961c-.342-.2-.619-.037-.619.357V55.855a1.37,1.37,0,0,0,.618,1.071l1.665.961c.342.2.619.037.619-.357" transform="translate(-1.995 -1.281)" fill="#fafafa"/>
          <path id="Trazado_655603" data-name="Trazado 655603" d="M36.54,54.608V36.174a1.365,1.365,0,0,0-.619-1.071l-1.665-.962c-.342-.2-.619-.037-.619.357V52.933A1.368,1.368,0,0,0,34.256,54l1.664.961c.342.2.619.037.619-.357" transform="translate(-1.688 -1.709)" fill="#fafafa"/>
          <path id="Trazado_655604" data-name="Trazado 655604" d="M30.428,50.921V29.346a1.368,1.368,0,0,0-.619-1.071l-1.666-.961c-.341-.2-.618-.038-.618.357V49.246a1.37,1.37,0,0,0,.618,1.071l1.665.961c.342.2.619.037.619-.357" transform="translate(-1.381 -1.367)" fill="#fafafa"/>
          <path id="Trazado_655605" data-name="Trazado 655605" d="M24.315,47.868V35.342A1.368,1.368,0,0,0,23.7,34.27l-1.665-.961c-.342-.2-.619-.037-.619.357V46.193a1.368,1.368,0,0,0,.619,1.071l1.665.961c.341.2.618.038.618-.357" transform="translate(-1.075 -1.667)" fill="#fafafa"/>
          <path id="Trazado_655606" data-name="Trazado 655606" d="M18.2,43.778V20.587a1.368,1.368,0,0,0-.619-1.072l-1.666-.961c-.341-.2-.618-.037-.618.357V42.1a1.37,1.37,0,0,0,.618,1.071l1.665.961c.342.2.619.037.619-.357" transform="translate(-0.768 -0.927)" fill="#fafafa"/>
          <path id="Trazado_655607" data-name="Trazado 655607" d="M10.447,97.945.189,88.311a.709.709,0,0,1,.583-1.186l9.675.843Z" transform="translate(0 -4.373)" fill="#fe80a7"/>
          <path id="Trazado_655608" data-name="Trazado 655608" d="M15.323,85.027l-4.853,2.8L.793,86.978a.734.734,0,0,0-.334.048c.774-.456,4.438-2.569,4.788-2.757a.671.671,0,0,1,.407-.081Z" transform="translate(-0.023 -4.225)" fill="#7e3f52"/>
          <path id="Trazado_655610" data-name="Trazado 655610" d="M9.891,66.749c.128-.425.537-.56,1-.288l40.2,23.21a2.107,2.107,0,0,1,.76.825l3.243-1.9a2.137,2.137,0,0,0-.752-.8L14.151,64.588a2.275,2.275,0,0,0-2.082,0l-1.177.672a2.346,2.346,0,0,0-1,1.489" transform="translate(-0.496 -3.229)" fill="#7e3f52"/>
          <path id="Trazado_655612" data-name="Trazado 655612" d="M9.849,67.167l.008,40.207a2.312,2.312,0,0,0,1.033,1.8l37.99,21.929,2.209,1.281a1.052,1.052,0,0,0,.161.08c.009,0,.016.008.024.008.5.177.857-.1.857-.689V91.578a2.055,2.055,0,0,0-.28-.976,2.093,2.093,0,0,0-.761-.824L10.89,66.567c-.464-.273-.873-.136-1,.288-.008.025-.008.048-.016.081a1.129,1.129,0,0,0-.024.232" transform="translate(-0.494 -3.334)" fill="#fe80a7"/>
          <path id="Trazado_655613" data-name="Trazado 655613" d="M53.463,133.651c.04.016.08.032.128.048a.706.706,0,0,0,.177.048,1.546,1.546,0,0,0,.272.048c.088.008.184.016.273.016a2.627,2.627,0,0,0,.56-.065,1.85,1.85,0,0,0,.488-.184l1.169-.68a2.288,2.288,0,0,0,1.041-1.8v-40.2a2.144,2.144,0,0,0-.289-1l-3.243,1.9a2.069,2.069,0,0,1,.28.977v40.207c0,.584-.36.865-.857.689" transform="translate(-2.683 -4.511)" fill="#6c3244"/>
          <path id="Trazado_655615" data-name="Trazado 655615" d="M47.645,99.68a28.038,28.038,0,0,1,3.3,8.889,24.87,24.87,0,0,1,.444,4.574,17.454,17.454,0,0,1-.444,4.062l-2.256-2.431a12.88,12.88,0,0,0,.33-3,18.391,18.391,0,0,0-.33-3.38,20.678,20.678,0,0,0-2.439-6.563,11.716,11.716,0,0,0-3.938-4.254V93.93a15.836,15.836,0,0,1,5.334,5.75" transform="translate(-2.124 -4.714)" fill="#fafafa"/>
          <path id="Trazado_655616" data-name="Trazado 655616" d="M33.2,98.551c.6-2.489,1.767-4.249,3.3-5.081a5.29,5.29,0,0,1,5.334.409v3.648a3.9,3.9,0,0,0-3.939-.294,5.525,5.525,0,0,0-2.438,3.747,12.883,12.883,0,0,0-.331,3,18.393,18.393,0,0,0,.331,3.38,20.69,20.69,0,0,0,2.438,6.563,11.694,11.694,0,0,0,3.939,4.254,3.9,3.9,0,0,0,3.938.293,5.525,5.525,0,0,0,2.438-3.747l2.256,2.431c-.6,2.488-1.767,4.248-3.3,5.081a5.291,5.291,0,0,1-5.333-.409,15.82,15.82,0,0,1-5.334-5.75,28.006,28.006,0,0,1-3.3-8.889,24.862,24.862,0,0,1-.444-4.574,17.454,17.454,0,0,1,.444-4.062" transform="translate(-1.644 -4.664)" fill="#7e3f52"/>
          <path id="Trazado_655617" data-name="Trazado 655617" d="M27.655,90.364l-12.4-7.16c-.479-.276-.867-.08-.867.439a1.857,1.857,0,0,0,.867,1.439l12.4,7.16c.479.276.867.08.867-.439a1.861,1.861,0,0,0-.867-1.439" transform="translate(-0.722 -4.17)" fill="#7e3f52"/>
          <path id="Trazado_655618" data-name="Trazado 655618" d="M27.572,96.75,13.6,88.7c-.479-.276-.867-.08-.867.439A1.858,1.858,0,0,0,13.6,90.58l13.97,8.048c.479.276.867.08.867-.439a1.861,1.861,0,0,0-.867-1.439" transform="translate(-0.639 -4.446)" fill="#fafafa"/>
          <path id="Trazado_655619" data-name="Trazado 655619" d="M27.572,100.772,13.6,92.724c-.479-.276-.867-.08-.867.439A1.858,1.858,0,0,0,13.6,94.6l13.97,8.048c.479.276.867.08.867-.439a1.861,1.861,0,0,0-.867-1.439" transform="translate(-0.639 -4.647)" fill="#fafafa"/>
          <path id="Trazado_655620" data-name="Trazado 655620" d="M27.572,104.794,13.6,96.746c-.479-.276-.867-.08-.867.439a1.858,1.858,0,0,0,.867,1.439l13.97,8.048c.479.276.867.08.867-.439a1.861,1.861,0,0,0-.867-1.439" transform="translate(-0.639 -4.849)" fill="#fafafa"/>
          <path id="Trazado_655621" data-name="Trazado 655621" d="M27.572,108.817,13.6,100.769c-.479-.276-.867-.08-.867.439a1.858,1.858,0,0,0,.867,1.439l13.97,8.048c.479.276.867.08.867-.439a1.861,1.861,0,0,0-.867-1.439" transform="translate(-0.639 -5.051)" fill="#fafafa"/>
        </g>
      </g>
    </g>
  </g>
</svg>
