<svg id="Grupo_1102156" data-name="Grupo 1102156" xmlns="http://www.w3.org/2000/svg" xmlns:xlink="http://www.w3.org/1999/xlink" width="80.625" height="31.675" viewBox="0 0 80.625 31.675">
  <defs>
    <clipPath id="clip-path">
      <rect id="Rectángulo_59032" data-name="Rectángulo 59032" width="80.625" height="31.675" fill="none"/>
    </clipPath>
    <clipPath id="clip-path-3">
      <rect id="Rectángulo_59018" data-name="Rectángulo 59018" width="41.561" height="28.745" fill="none"/>
    </clipPath>
    <clipPath id="clip-path-4">
      <rect id="Rectángulo_59019" data-name="Rectángulo 59019" width="5.68" height="5.491" fill="none"/>
    </clipPath>
    <clipPath id="clip-path-5">
      <rect id="Rectángulo_59020" data-name="Rectángulo 59020" width="4.583" height="6.666" fill="none"/>
    </clipPath>
    <clipPath id="clip-path-6">
      <rect id="Rectángulo_59021" data-name="Rectángulo 59021" width="0.622" height="7.576" fill="none"/>
    </clipPath>
    <clipPath id="clip-path-7">
      <rect id="Rectángulo_59022" data-name="Rectángulo 59022" width="0.623" height="7.633" fill="none"/>
    </clipPath>
    <clipPath id="clip-path-8">
      <rect id="Rectángulo_59023" data-name="Rectángulo 59023" width="4.583" height="6.665" fill="none"/>
    </clipPath>
    <clipPath id="clip-path-9">
      <rect id="Rectángulo_59024" data-name="Rectángulo 59024" width="31.823" height="22.451" fill="none"/>
    </clipPath>
    <clipPath id="clip-path-10">
      <rect id="Rectángulo_59025" data-name="Rectángulo 59025" width="3.924" height="5.875" fill="none"/>
    </clipPath>
    <clipPath id="clip-path-11">
      <rect id="Rectángulo_59026" data-name="Rectángulo 59026" width="4.131" height="4.716" fill="none"/>
    </clipPath>
    <clipPath id="clip-path-12">
      <rect id="Rectángulo_59027" data-name="Rectángulo 59027" width="2.413" height="6.273" fill="none"/>
    </clipPath>
    <clipPath id="clip-path-13">
      <rect id="Rectángulo_59028" data-name="Rectángulo 59028" width="2.455" height="6.276" fill="none"/>
    </clipPath>
    <clipPath id="clip-path-14">
      <rect id="Rectángulo_59029" data-name="Rectángulo 59029" width="2.343" height="4.755" fill="none"/>
    </clipPath>
    <clipPath id="clip-path-15">
      <rect id="Rectángulo_59030" data-name="Rectángulo 59030" width="1.912" height="6.546" fill="none"/>
    </clipPath>
  </defs>
  <g id="Grupo_182783" data-name="Grupo 182783" transform="translate(0 0)" clip-path="url(#clip-path)">
    <g id="Grupo_182782" data-name="Grupo 182782" transform="translate(0 0)">
      <g id="Grupo_182781" data-name="Grupo 182781" clip-path="url(#clip-path)">
        <path id="Trazado_235987" data-name="Trazado 235987" d="M83.543,12.934l.01,5.213a.506.506,0,0,0,.468.5l3.564.225v5.022h0a.306.306,0,0,0,.174.255l3.757,2.169a.94.94,0,0,0,.476.1v.007a.894.894,0,0,0,.356-.067l3.808-1.764a1.4,1.4,0,0,1,.871-.052,22.6,22.6,0,0,0,2.957.7.719.719,0,0,1,.55.535l.476,2.51a.566.566,0,0,0,.206.328h0a.564.564,0,0,0,.35.131h5.523a.547.547,0,0,0,.316-.119.579.579,0,0,0,.071-.064.616.616,0,0,0,.078-.07v-.057c.03-.051.081-.092.092-.151l.476-2.51a.718.718,0,0,1,.55-.534,22.632,22.632,0,0,0,2.956-.7,1.4,1.4,0,0,1,.872.052l3.808,1.765a.893.893,0,0,0,.23.038v.025a1.068,1.068,0,0,0,.134,0,.875.875,0,0,0,.1,0,.891.891,0,0,0,.36-.094l.009,0,3.757-2.169a.369.369,0,0,0,.133-.127.045.045,0,0,1,.007-.007.231.231,0,0,0,.029-.1c0-.006.005-.01.006-.016h0V21.756l0-2.618-.149-.254.2-.015,3.447-.219.065,0c.035,0,.057-.034.09-.043a.319.319,0,0,0,.312-.291c.021-.054.065-.1.065-.158v-.006h0V10.6a.506.506,0,0,0-.468-.5l-3.566-.225,0-5.016,0,.007A.3.3,0,0,0,120.9,4.6l-3.757-2.169a1.014,1.014,0,0,0-.831-.037L112.5,4.155a1.4,1.4,0,0,1-.871.052,22.62,22.62,0,0,0-2.957-.7.72.72,0,0,1-.55-.535l-.476-2.51A.588.588,0,0,0,107.09,0h-5.524a.588.588,0,0,0-.556.461l-.477,2.509a.72.72,0,0,1-.55.535,22.607,22.607,0,0,0-2.956.7,1.4,1.4,0,0,1-.872-.052L92.348,2.392a1.014,1.014,0,0,0-.831.037L87.76,4.6a.3.3,0,0,0-.173.273h0v5l-3.562.226a.506.506,0,0,0-.468.5v2.237a.486.486,0,0,0-.01.1m14.438,1.773a14.028,14.028,0,0,1,12.693,0c.266.153.511.31.738.469a7.758,7.758,0,0,1-.737.483,14.029,14.029,0,0,1-12.694,0,7.837,7.837,0,0,1-.734-.481c.224-.16.467-.317.733-.471" transform="translate(-44.479 0)" fill="#27debf"/>
        <g id="Grupo_182744" data-name="Grupo 182744" transform="translate(39.064 0)" opacity="0.2">
          <g id="Grupo_182743" data-name="Grupo 182743">
            <g id="Grupo_182742" data-name="Grupo 182742" clip-path="url(#clip-path-3)">
              <path id="Trazado_235988" data-name="Trazado 235988" d="M83.543,12.934l.01,5.213a.506.506,0,0,0,.468.5l3.564.225v5.022h0a.306.306,0,0,0,.174.255l3.757,2.169a.94.94,0,0,0,.476.1v.007a.894.894,0,0,0,.356-.067l3.808-1.764a1.4,1.4,0,0,1,.871-.052,22.6,22.6,0,0,0,2.957.7.719.719,0,0,1,.55.535l.476,2.51a.566.566,0,0,0,.206.328h0a.564.564,0,0,0,.35.131h5.523a.547.547,0,0,0,.316-.119.579.579,0,0,0,.071-.064.616.616,0,0,0,.078-.07v-.057c.03-.051.081-.092.092-.151l.476-2.51a.718.718,0,0,1,.55-.534,22.632,22.632,0,0,0,2.956-.7,1.4,1.4,0,0,1,.872.052l3.808,1.765a.893.893,0,0,0,.23.038v.025a1.068,1.068,0,0,0,.134,0,.875.875,0,0,0,.1,0,.891.891,0,0,0,.36-.094l.009,0,3.757-2.169a.369.369,0,0,0,.133-.127.045.045,0,0,1,.007-.007.231.231,0,0,0,.029-.1c0-.006.005-.01.006-.016h0V21.756l0-2.618-.149-.254.2-.015,3.447-.219.065,0c.035,0,.057-.034.09-.043a.319.319,0,0,0,.312-.291c.021-.054.065-.1.065-.158v-.006h0V10.6a.506.506,0,0,0-.468-.5l-3.566-.225,0-5.016,0,.007A.3.3,0,0,0,120.9,4.6l-3.757-2.169a1.014,1.014,0,0,0-.831-.037L112.5,4.155a1.4,1.4,0,0,1-.871.052,22.62,22.62,0,0,0-2.957-.7.72.72,0,0,1-.55-.535l-.476-2.51A.588.588,0,0,0,107.09,0h-5.524a.588.588,0,0,0-.556.461l-.477,2.509a.72.72,0,0,1-.55.535,22.607,22.607,0,0,0-2.956.7,1.4,1.4,0,0,1-.872-.052L92.348,2.392a1.014,1.014,0,0,0-.831.037L87.76,4.6a.3.3,0,0,0-.173.273h0v5l-3.562.226a.506.506,0,0,0-.468.5v2.237a.486.486,0,0,0-.01.1m14.438,1.773a14.028,14.028,0,0,1,12.693,0c.266.153.511.31.738.469a7.758,7.758,0,0,1-.737.483,14.029,14.029,0,0,1-12.694,0,7.837,7.837,0,0,1-.734-.481c.224-.16.467-.317.733-.471" transform="translate(-83.543)"/>
            </g>
          </g>
        </g>
        <path id="Trazado_235989" data-name="Trazado 235989" d="M116.321,2.391l-3.808,1.764a1.4,1.4,0,0,1-.871.052,22.47,22.47,0,0,0-2.957-.7.721.721,0,0,1-.551-.535l-.476-2.51A.588.588,0,0,0,107.1,0h-5.524a.588.588,0,0,0-.556.461l-.477,2.51a.72.72,0,0,1-.55.535,22.53,22.53,0,0,0-2.956.7,1.394,1.394,0,0,1-.872-.052L92.36,2.391a1.014,1.014,0,0,0-.831.037L87.771,4.6a.28.28,0,0,0-.025.508l2.977,2.142a.4.4,0,0,1,.055.611,7.5,7.5,0,0,0-1.063,1.474.925.925,0,0,1-.677.449l-5.006.317a.506.506,0,0,0-.468.5v2.793a.506.506,0,0,0,.468.5l5.006.317a.924.924,0,0,1,.677.449,7.5,7.5,0,0,0,1.063,1.474.4.4,0,0,1-.055.611l-2.977,2.143a.28.28,0,0,0,.025.508l3.757,2.169a1.012,1.012,0,0,0,.831.037l3.808-1.764a1.393,1.393,0,0,1,.871-.052,22.638,22.638,0,0,0,2.957.7.72.72,0,0,1,.55.535l.476,2.51a.588.588,0,0,0,.556.46H107.1a.589.589,0,0,0,.556-.461l.476-2.51a.72.72,0,0,1,.55-.534,22.621,22.621,0,0,0,2.957-.7,1.4,1.4,0,0,1,.871.052l3.809,1.764a1.012,1.012,0,0,0,.831-.037l3.757-2.169a.28.28,0,0,0,.025-.508l-2.977-2.143a.4.4,0,0,1-.055-.611,7.492,7.492,0,0,0,1.063-1.475.927.927,0,0,1,.677-.449l5.006-.317a.506.506,0,0,0,.468-.5V10.6a.506.506,0,0,0-.468-.5l-5.006-.317a.924.924,0,0,1-.676-.449A7.5,7.5,0,0,0,117.9,7.859a.4.4,0,0,1,.055-.611l2.978-2.142a.28.28,0,0,0-.026-.508l-3.757-2.169a1.011,1.011,0,0,0-.831-.037m-5.634,5.939c3.505,2.024,3.505,5.3,0,7.329a14.03,14.03,0,0,1-12.694,0c-3.505-2.024-3.505-5.3,0-7.329a14.028,14.028,0,0,1,12.693,0" transform="translate(-44.491 0)" fill="#27debf"/>
        <g id="Grupo_182747" data-name="Grupo 182747" transform="translate(74.945 13.391)" opacity="0.15">
          <g id="Grupo_182746" data-name="Grupo 182746">
            <g id="Grupo_182745" data-name="Grupo 182745" clip-path="url(#clip-path-4)">
              <path id="Trazado_235990" data-name="Trazado 235990" d="M161.777,34.129l-1.5-1.078V29.5a.7.7,0,0,1,.207-.05l5.006-.317a.5.5,0,0,0,.467-.5V33.4a.507.507,0,0,1-.467.49h0l-.063.005-2.847.18Z" transform="translate(-160.278 -28.638)"/>
            </g>
          </g>
        </g>
        <g id="Grupo_182750" data-name="Grupo 182750" transform="translate(67.736 19.757)" opacity="0.15">
          <g id="Grupo_182749" data-name="Grupo 182749">
            <g id="Grupo_182748" data-name="Grupo 182748" clip-path="url(#clip-path-5)">
              <path id="Trazado_235991" data-name="Trazado 235991" d="M144.861,42.253a1.1,1.1,0,0,1,.288.077l3.806,1.764a.975.975,0,0,0,.489.062v4.757a1.141,1.141,0,0,1-.256,0h0v-.025a.806.806,0,0,1-.231-.038l-3.809-1.763a1.136,1.136,0,0,0-.285-.065Z" transform="translate(-144.861 -42.253)"/>
            </g>
          </g>
        </g>
        <g id="Grupo_182753" data-name="Grupo 182753" transform="translate(63.096 20.828)" opacity="0.15">
          <g id="Grupo_182752" data-name="Grupo 182752">
            <g id="Grupo_182751" data-name="Grupo 182751" clip-path="url(#clip-path-6)">
              <path id="Trazado_235992" data-name="Trazado 235992" d="M134.938,47.422a.52.52,0,0,0,.071-.179l.477-2.51a.581.581,0,0,1,.074-.191V49.3a.531.531,0,0,0-.074.186L135.009,52a.29.29,0,0,1-.071.12Z" transform="translate(-134.938 -44.543)"/>
            </g>
          </g>
        </g>
        <g id="Grupo_182756" data-name="Grupo 182756" transform="translate(55.98 20.83)" opacity="0.15">
          <g id="Grupo_182755" data-name="Grupo 182755">
            <g id="Grupo_182754" data-name="Grupo 182754" clip-path="url(#clip-path-7)">
              <path id="Trazado_235993" data-name="Trazado 235993" d="M119.721,44.548a.6.6,0,0,1,.073.188l.477,2.51a.544.544,0,0,0,.072.181V52.18a.531.531,0,0,1-.072-.179l-.477-2.51a.479.479,0,0,0-.073-.171Z" transform="translate(-119.721 -44.548)"/>
            </g>
          </g>
        </g>
        <g id="Grupo_182759" data-name="Grupo 182759" transform="translate(47.38 19.757)" opacity="0.15">
          <g id="Grupo_182758" data-name="Grupo 182758">
            <g id="Grupo_182757" data-name="Grupo 182757" clip-path="url(#clip-path-8)">
              <path id="Trazado_235994" data-name="Trazado 235994" d="M101.328,44.155a.957.957,0,0,0,.488-.062l3.809-1.764a1.106,1.106,0,0,1,.287-.077v4.758a1.075,1.075,0,0,0-.287.075l-3.809,1.764a.876.876,0,0,1-.355.068V48.91c-.044,0-.088,0-.132,0Z" transform="translate(-101.328 -42.253)"/>
            </g>
          </g>
        </g>
        <path id="Trazado_235995" data-name="Trazado 235995" d="M31.823,31.31V31.3a.2.2,0,0,0-.026-.09v0c0-1.637,0-4.475,0-4.653,0,0,0-.006,0-.009a.384.384,0,0,0-.08-.223L30.264,24.3a.692.692,0,0,0-.6-.281l-3.8.637a1.173,1.173,0,0,1-.726-.207c-.237-.164-.49-.324-.753-.475l0-3.021,0,0c0-.121-.114-.237-.3-.282l-3.857-.922a.72.72,0,0,0-.62.117l-1.845,1.941A.875.875,0,0,1,17.16,22a20.267,20.267,0,0,0-2.511,0,.988.988,0,0,1-.678-.295L12.32,19.973a.758.758,0,0,0-.644-.237l-4.008.956a.263.263,0,0,0-.207.264.069.069,0,0,0,0,.014c0,.167,0,1.6,0,2.994a9.787,9.787,0,0,0-.893.57,1.03,1.03,0,0,1-.661.112l-3.679-.619a.651.651,0,0,0-.584.17l-1.6,2.226a.164.164,0,0,0-.034.1v.016c0,.338-.009,5.748-.009,5.782a.205.205,0,0,0,.031.093c0,1.664,0,2.856-.007,2.926a.4.4,0,0,0,.082.236L1.56,37.6a.692.692,0,0,0,.6.281l3.8-.639a1.187,1.187,0,0,1,.726.207c.238.166.49.324.754.477l0,3.008c-.008.124.112.244.3.29l3.853.921a.721.721,0,0,0,.625-.117l1.844-1.941a.862.862,0,0,1,.606-.188,20.831,20.831,0,0,0,2.511,0,.99.99,0,0,1,.676.292L19.5,41.928a.764.764,0,0,0,.644.237l4.007-.958a.256.256,0,0,0,.2-.22c.01-.066.006-3.053.006-3.053q.471-.267.894-.567a1.013,1.013,0,0,1,.66-.115l3.68.621a.649.649,0,0,0,.584-.173l1.6-2.226a.181.181,0,0,0,.034-.1c0-.106.007-3.858.006-4.061Zm-21.455.118q.262-.186.572-.364a11.017,11.017,0,0,1,9.971,0c.2.116.389.237.56.356a5.379,5.379,0,0,1-.606.4,11.111,11.111,0,0,1-7.648.861,8.541,8.541,0,0,1-2.26-.866,5.607,5.607,0,0,1-.589-.382" transform="translate(0 -10.502)" fill="#27debf"/>
        <g id="Grupo_182762" data-name="Grupo 182762" transform="translate(0 9.223)" opacity="0.2">
          <g id="Grupo_182761" data-name="Grupo 182761">
            <g id="Grupo_182760" data-name="Grupo 182760" clip-path="url(#clip-path-9)">
              <path id="Trazado_235996" data-name="Trazado 235996" d="M31.823,31.31V31.3a.2.2,0,0,0-.026-.09v0c0-1.637,0-4.475,0-4.653,0,0,0-.006,0-.009a.384.384,0,0,0-.08-.223L30.264,24.3a.692.692,0,0,0-.6-.281l-3.8.637a1.173,1.173,0,0,1-.726-.207c-.237-.164-.49-.324-.753-.475l0-3.021,0,0c0-.121-.114-.237-.3-.282l-3.857-.922a.72.72,0,0,0-.62.117l-1.845,1.941A.875.875,0,0,1,17.16,22a20.267,20.267,0,0,0-2.511,0,.988.988,0,0,1-.678-.295L12.32,19.973a.758.758,0,0,0-.644-.237l-4.008.956a.263.263,0,0,0-.207.264.069.069,0,0,0,0,.014c0,.167,0,1.6,0,2.994a9.787,9.787,0,0,0-.893.57,1.03,1.03,0,0,1-.661.112l-3.679-.619a.651.651,0,0,0-.584.17l-1.6,2.226a.164.164,0,0,0-.034.1v.016c0,.338-.009,5.748-.009,5.782a.205.205,0,0,0,.031.093c0,1.664,0,2.856-.007,2.926a.4.4,0,0,0,.082.236L1.56,37.6a.692.692,0,0,0,.6.281l3.8-.639a1.187,1.187,0,0,1,.726.207c.238.166.49.324.754.477l0,3.008c-.008.124.112.244.3.29l3.853.921a.721.721,0,0,0,.625-.117l1.844-1.941a.862.862,0,0,1,.606-.188,20.831,20.831,0,0,0,2.511,0,.99.99,0,0,1,.676.292L19.5,41.928a.764.764,0,0,0,.644.237l4.007-.958a.256.256,0,0,0,.2-.22c.01-.066.006-3.053.006-3.053q.471-.267.894-.567a1.013,1.013,0,0,1,.66-.115l3.68.621a.649.649,0,0,0,.584-.173l1.6-2.226a.181.181,0,0,0,.034-.1c0-.106.007-3.858.006-4.061Zm-21.455.118q.262-.186.572-.364a11.017,11.017,0,0,1,9.971,0c.2.116.389.237.56.356a5.379,5.379,0,0,1-.606.4,11.111,11.111,0,0,1-7.648.861,8.541,8.541,0,0,1-2.26-.866,5.607,5.607,0,0,1-.589-.382" transform="translate(0 -19.725)"/>
            </g>
          </g>
        </g>
        <g id="Grupo_182765" data-name="Grupo 182765" transform="translate(0.002 16.037)" opacity="0.15">
          <g id="Grupo_182764" data-name="Grupo 182764">
            <g id="Grupo_182763" data-name="Grupo 182763" clip-path="url(#clip-path-10)">
              <path id="Trazado_235997" data-name="Trazado 235997" d="M3.925,36.028a3.96,3.96,0,0,0-.005,1.256.405.405,0,0,1-.257.443L.2,38.824a.224.224,0,0,0-.163.221c0,.071,0,1.127,0,1.127A.206.206,0,0,1,0,40.088c0-1.97.008-5.261.008-5.55V34.3c.006.1.11.207.278.26L3.566,35.6a.449.449,0,0,1,.359.433" transform="translate(-0.004 -34.297)"/>
            </g>
          </g>
        </g>
        <g id="Grupo_182768" data-name="Grupo 182768" transform="translate(1.964 22.668)" opacity="0.15">
          <g id="Grupo_182767" data-name="Grupo 182767">
            <g id="Grupo_182766" data-name="Grupo 182766" clip-path="url(#clip-path-11)">
              <path id="Trazado_235998" data-name="Trazado 235998" d="M8.331,48.48v4.07a.592.592,0,0,0-.139,0l-3.8.637a.451.451,0,0,1-.194-.015V49.112a.493.493,0,0,0,.2.013l3.8-.64a.518.518,0,0,1,.131-.005" transform="translate(-4.2 -48.479)"/>
            </g>
          </g>
        </g>
        <g id="Grupo_182771" data-name="Grupo 182771" transform="translate(11.878 25.39)" opacity="0.15">
          <g id="Grupo_182770" data-name="Grupo 182770">
            <g id="Grupo_182769" data-name="Grupo 182769" clip-path="url(#clip-path-12)">
              <path id="Trazado_235999" data-name="Trazado 235999" d="M27.816,54.3v4.068a.587.587,0,0,0-.233.131l-1.844,1.941a.569.569,0,0,1-.336.134V56.5a.546.546,0,0,0,.344-.131l1.846-1.943a.581.581,0,0,1,.223-.131" transform="translate(-25.403 -54.299)"/>
            </g>
          </g>
        </g>
        <g id="Grupo_182774" data-name="Grupo 182774" transform="translate(17.417 25.366)" opacity="0.15">
          <g id="Grupo_182773" data-name="Grupo 182773">
            <g id="Grupo_182772" data-name="Grupo 182772" clip-path="url(#clip-path-13)">
              <path id="Trazado_236000" data-name="Trazado 236000" d="M39.7,56.459v4.065a.826.826,0,0,1-.367-.215L37.684,58.57a1.06,1.06,0,0,0-.435-.254V54.248a1.061,1.061,0,0,1,.443.257l1.652,1.736a.843.843,0,0,0,.359.218" transform="translate(-37.249 -54.248)"/>
            </g>
          </g>
        </g>
        <g id="Grupo_182777" data-name="Grupo 182777" transform="translate(23.318 22.678)" opacity="0.15">
          <g id="Grupo_182776" data-name="Grupo 182776">
            <g id="Grupo_182775" data-name="Grupo 182775" clip-path="url(#clip-path-14)">
              <path id="Trazado_236001" data-name="Trazado 236001" d="M52.211,48.5v4.068a.868.868,0,0,0-.4.121,10.489,10.489,0,0,1-.894.567s.006-.93.005-1.057a.383.383,0,0,0-.042-.165l-.963-1.907a.346.346,0,0,1,.121-.483,11.221,11.221,0,0,0,1.781-1.02.8.8,0,0,1,.393-.123" transform="translate(-49.868 -48.499)"/>
            </g>
          </g>
        </g>
        <g id="Grupo_182780" data-name="Grupo 182780" transform="translate(29.91 20.81)" opacity="0.15">
          <g id="Grupo_182779" data-name="Grupo 182779">
            <g id="Grupo_182778" data-name="Grupo 182778" clip-path="url(#clip-path-15)">
              <path id="Trazado_236002" data-name="Trazado 236002" d="M65.877,44.5c0,.2-.005,3.955-.005,4.062a.2.2,0,0,1-.037.1l-1.6,2.224a.463.463,0,0,1-.273.157V46.989a.5.5,0,0,0,.283-.16L65.843,44.6a.151.151,0,0,0,.034-.1" transform="translate(-63.965 -44.505)"/>
            </g>
          </g>
        </g>
        <path id="Trazado_236003" data-name="Trazado 236003" d="M7.469,20.957a.064.064,0,0,0,0,.014.375.375,0,0,0,.043.154l.96,1.9a.345.345,0,0,1-.121.483c-.305.143-.6.295-.886.454a10.089,10.089,0,0,0-.893.57,1.032,1.032,0,0,1-.66.112l-3.679-.62a.649.649,0,0,0-.584.171l-1.6,2.226a.165.165,0,0,0-.034.1.1.1,0,0,1,0,.016c.007.1.11.206.28.258l3.275,1.039a.45.45,0,0,1,.358.434,3.951,3.951,0,0,0,0,1.255.407.407,0,0,1-.257.443L.2,31.067a.221.221,0,0,0-.164.219.419.419,0,0,0,.082.225l1.455,2.025a.68.68,0,0,0,.6.281l3.8-.639a1.16,1.16,0,0,1,.724.209,11.2,11.2,0,0,0,1.54.885c.225.111.351.308.276.455L7.469,36.794c-.073.148.053.309.282.367l3.856.92a.716.716,0,0,0,.622-.115l1.846-1.941a.876.876,0,0,1,.6-.19,20.817,20.817,0,0,0,2.51,0,1,1,0,0,1,.678.291l1.652,1.738a.772.772,0,0,0,.642.238l4.009-.96a.28.28,0,0,0,.164-.428l-.961-1.905a.347.347,0,0,1,.12-.483,11.243,11.243,0,0,0,1.78-1.022,1,1,0,0,1,.659-.114l3.682.618a.646.646,0,0,0,.584-.17l1.6-2.225a.152.152,0,0,0,.034-.1h0a.013.013,0,0,0,0-.008.193.193,0,0,0-.026-.09v0a.437.437,0,0,0-.252-.175L28.275,30c-.23-.074-.386-.265-.358-.434a4.064,4.064,0,0,0,0-1.255.4.4,0,0,1,.257-.443l3.469-1.1a.218.218,0,0,0,.159-.211s0-.006,0-.009a.38.38,0,0,0-.081-.223L30.273,24.3a.693.693,0,0,0-.6-.281l-3.8.637a1.175,1.175,0,0,1-.726-.207c-.237-.164-.49-.324-.753-.475s-.512-.28-.784-.411c-.227-.108-.353-.307-.278-.452l1.046-2.072a.172.172,0,0,0,.019-.081c0-.122-.114-.238-.3-.282l-3.857-.922a.72.72,0,0,0-.62.118l-1.845,1.941a.873.873,0,0,1-.605.188,20.274,20.274,0,0,0-2.512,0,.988.988,0,0,1-.678-.3l-1.651-1.736a.76.76,0,0,0-.644-.237l-4.009.956a.264.264,0,0,0-.207.265m14.579,5.949c.034.034.067.066.1.1s.046.05.068.074c.05.057.1.114.143.173s.1.139.15.209q.044.067.084.135l.038.065a2.492,2.492,0,0,1-.193,2.811,4.251,4.251,0,0,1-.956.946,5.307,5.307,0,0,1-.605.395,11.112,11.112,0,0,1-7.648.862,8.54,8.54,0,0,1-2.26-.866,5.447,5.447,0,0,1-.59-.382,3.952,3.952,0,0,1-1.2-1.337.054.054,0,0,1-.008-.018c-.014-.026-.027-.052-.04-.079a.909.909,0,0,1-.036-.084.575.575,0,0,1-.037-.089,2.487,2.487,0,0,1,.359-2.46c1.491-2.077,5.615-3.063,9.21-2.2a7.094,7.094,0,0,1,3.427,1.748" transform="translate(-0.009 -10.502)" fill="#27debf"/>
      </g>
    </g>
    <g id="Grupo_981153" data-name="Grupo 981153" transform="translate(0 0)">
      <g id="Grupo_182781-2" data-name="Grupo 182781" clip-path="url(#clip-path)">
        <path id="Trazado_235987-2" data-name="Trazado 235987" d="M83.543,12.934l.01,5.213a.506.506,0,0,0,.468.5l3.564.225v5.022h0a.306.306,0,0,0,.174.255l3.757,2.169a.94.94,0,0,0,.476.1v.007a.894.894,0,0,0,.356-.067l3.808-1.764a1.4,1.4,0,0,1,.871-.052,22.6,22.6,0,0,0,2.957.7.719.719,0,0,1,.55.535l.476,2.51a.566.566,0,0,0,.206.328h0a.564.564,0,0,0,.35.131h5.523a.547.547,0,0,0,.316-.119.579.579,0,0,0,.071-.064.616.616,0,0,0,.078-.07v-.057c.03-.051.081-.092.092-.151l.476-2.51a.718.718,0,0,1,.55-.534,22.632,22.632,0,0,0,2.956-.7,1.4,1.4,0,0,1,.872.052l3.808,1.765a.893.893,0,0,0,.23.038v.025a1.068,1.068,0,0,0,.134,0,.875.875,0,0,0,.1,0,.891.891,0,0,0,.36-.094l.009,0,3.757-2.169a.369.369,0,0,0,.133-.127.045.045,0,0,1,.007-.007.231.231,0,0,0,.029-.1c0-.006.005-.01.006-.016h0V21.756l0-2.618-.149-.254.2-.015,3.447-.219.065,0c.035,0,.057-.034.09-.043a.319.319,0,0,0,.312-.291c.021-.054.065-.1.065-.158v-.006h0V10.6a.506.506,0,0,0-.468-.5l-3.566-.225,0-5.016,0,.007A.3.3,0,0,0,120.9,4.6l-3.757-2.169a1.014,1.014,0,0,0-.831-.037L112.5,4.155a1.4,1.4,0,0,1-.871.052,22.62,22.62,0,0,0-2.957-.7.72.72,0,0,1-.55-.535l-.476-2.51A.588.588,0,0,0,107.09,0h-5.524a.588.588,0,0,0-.556.461l-.477,2.509a.72.72,0,0,1-.55.535,22.607,22.607,0,0,0-2.956.7,1.4,1.4,0,0,1-.872-.052L92.348,2.392a1.014,1.014,0,0,0-.831.037L87.76,4.6a.3.3,0,0,0-.173.273h0v5l-3.562.226a.506.506,0,0,0-.468.5v2.237a.486.486,0,0,0-.01.1m14.438,1.773a14.028,14.028,0,0,1,12.693,0c.266.153.511.31.738.469a7.758,7.758,0,0,1-.737.483,14.029,14.029,0,0,1-12.694,0,7.837,7.837,0,0,1-.734-.481c.224-.16.467-.317.733-.471" transform="translate(-44.479 0)" fill="#b0c0d2"/>
        <path id="Trazado_235989-2" data-name="Trazado 235989" d="M116.321,2.391l-3.808,1.764a1.4,1.4,0,0,1-.871.052,22.47,22.47,0,0,0-2.957-.7.721.721,0,0,1-.551-.535l-.476-2.51A.588.588,0,0,0,107.1,0h-5.524a.588.588,0,0,0-.556.461l-.477,2.51a.72.72,0,0,1-.55.535,22.53,22.53,0,0,0-2.956.7,1.394,1.394,0,0,1-.872-.052L92.36,2.391a1.014,1.014,0,0,0-.831.037L87.771,4.6a.28.28,0,0,0-.025.508l2.977,2.142a.4.4,0,0,1,.055.611,7.5,7.5,0,0,0-1.063,1.474.925.925,0,0,1-.677.449l-5.006.317a.506.506,0,0,0-.468.5v2.793a.506.506,0,0,0,.468.5l5.006.317a.924.924,0,0,1,.677.449,7.5,7.5,0,0,0,1.063,1.474.4.4,0,0,1-.055.611l-2.977,2.143a.28.28,0,0,0,.025.508l3.757,2.169a1.012,1.012,0,0,0,.831.037l3.808-1.764a1.393,1.393,0,0,1,.871-.052,22.638,22.638,0,0,0,2.957.7.72.72,0,0,1,.55.535l.476,2.51a.588.588,0,0,0,.556.46H107.1a.589.589,0,0,0,.556-.461l.476-2.51a.72.72,0,0,1,.55-.534,22.621,22.621,0,0,0,2.957-.7,1.4,1.4,0,0,1,.871.052l3.809,1.764a1.012,1.012,0,0,0,.831-.037l3.757-2.169a.28.28,0,0,0,.025-.508l-2.977-2.143a.4.4,0,0,1-.055-.611,7.492,7.492,0,0,0,1.063-1.475.927.927,0,0,1,.677-.449l5.006-.317a.506.506,0,0,0,.468-.5V10.6a.506.506,0,0,0-.468-.5l-5.006-.317a.924.924,0,0,1-.676-.449A7.5,7.5,0,0,0,117.9,7.859a.4.4,0,0,1,.055-.611l2.978-2.142a.28.28,0,0,0-.026-.508l-3.757-2.169a1.011,1.011,0,0,0-.831-.037m-5.634,5.939c3.505,2.024,3.505,5.3,0,7.329a14.03,14.03,0,0,1-12.694,0c-3.505-2.024-3.505-5.3,0-7.329a14.028,14.028,0,0,1,12.693,0" transform="translate(-44.491 0)" fill="#12263f"/>
        <g id="Grupo_182747-2" data-name="Grupo 182747" transform="translate(74.945 13.391)" opacity="0.15">
          <g id="Grupo_182746-2" data-name="Grupo 182746">
            <g id="Grupo_182745-2" data-name="Grupo 182745" clip-path="url(#clip-path-4)">
              <path id="Trazado_235990-2" data-name="Trazado 235990" d="M161.777,34.129l-1.5-1.078V29.5a.7.7,0,0,1,.207-.05l5.006-.317a.5.5,0,0,0,.467-.5V33.4a.507.507,0,0,1-.467.49h0l-.063.005-2.847.18Z" transform="translate(-160.278 -28.638)"/>
            </g>
          </g>
        </g>
        <g id="Grupo_182750-2" data-name="Grupo 182750" transform="translate(67.736 19.757)" opacity="0.15">
          <g id="Grupo_182749-2" data-name="Grupo 182749">
            <g id="Grupo_182748-2" data-name="Grupo 182748" clip-path="url(#clip-path-5)">
              <path id="Trazado_235991-2" data-name="Trazado 235991" d="M144.861,42.253a1.1,1.1,0,0,1,.288.077l3.806,1.764a.975.975,0,0,0,.489.062v4.757a1.141,1.141,0,0,1-.256,0h0v-.025a.806.806,0,0,1-.231-.038l-3.809-1.763a1.136,1.136,0,0,0-.285-.065Z" transform="translate(-144.861 -42.253)"/>
            </g>
          </g>
        </g>
        <g id="Grupo_182753-2" data-name="Grupo 182753" transform="translate(63.096 20.828)" opacity="0.15">
          <g id="Grupo_182752-2" data-name="Grupo 182752">
            <g id="Grupo_182751-2" data-name="Grupo 182751" clip-path="url(#clip-path-6)">
              <path id="Trazado_235992-2" data-name="Trazado 235992" d="M134.938,47.422a.52.52,0,0,0,.071-.179l.477-2.51a.581.581,0,0,1,.074-.191V49.3a.531.531,0,0,0-.074.186L135.009,52a.29.29,0,0,1-.071.12Z" transform="translate(-134.938 -44.543)"/>
            </g>
          </g>
        </g>
        <g id="Grupo_182756-2" data-name="Grupo 182756" transform="translate(55.98 20.83)" opacity="0.15">
          <g id="Grupo_182755-2" data-name="Grupo 182755">
            <g id="Grupo_182754-2" data-name="Grupo 182754" clip-path="url(#clip-path-7)">
              <path id="Trazado_235993-2" data-name="Trazado 235993" d="M119.721,44.548a.6.6,0,0,1,.073.188l.477,2.51a.544.544,0,0,0,.072.181V52.18a.531.531,0,0,1-.072-.179l-.477-2.51a.479.479,0,0,0-.073-.171Z" transform="translate(-119.721 -44.548)"/>
            </g>
          </g>
        </g>
        <g id="Grupo_182759-2" data-name="Grupo 182759" transform="translate(47.38 19.757)" opacity="0.15">
          <g id="Grupo_182758-2" data-name="Grupo 182758">
            <g id="Grupo_182757-2" data-name="Grupo 182757" clip-path="url(#clip-path-8)">
              <path id="Trazado_235994-2" data-name="Trazado 235994" d="M101.328,44.155a.957.957,0,0,0,.488-.062l3.809-1.764a1.106,1.106,0,0,1,.287-.077v4.758a1.075,1.075,0,0,0-.287.075l-3.809,1.764a.876.876,0,0,1-.355.068V48.91c-.044,0-.088,0-.132,0Z" transform="translate(-101.328 -42.253)"/>
            </g>
          </g>
        </g>
        <path id="Trazado_235995-2" data-name="Trazado 235995" d="M31.823,31.31V31.3a.2.2,0,0,0-.026-.09v0c0-1.637,0-4.475,0-4.653,0,0,0-.006,0-.009a.384.384,0,0,0-.08-.223L30.264,24.3a.692.692,0,0,0-.6-.281l-3.8.637a1.173,1.173,0,0,1-.726-.207c-.237-.164-.49-.324-.753-.475l0-3.021,0,0c0-.121-.114-.237-.3-.282l-3.857-.922a.72.72,0,0,0-.62.117l-1.845,1.941A.875.875,0,0,1,17.16,22a20.267,20.267,0,0,0-2.511,0,.988.988,0,0,1-.678-.295L12.32,19.973a.758.758,0,0,0-.644-.237l-4.008.956a.263.263,0,0,0-.207.264.069.069,0,0,0,0,.014c0,.167,0,1.6,0,2.994a9.787,9.787,0,0,0-.893.57,1.03,1.03,0,0,1-.661.112l-3.679-.619a.651.651,0,0,0-.584.17l-1.6,2.226a.164.164,0,0,0-.034.1v.016c0,.338-.009,5.748-.009,5.782a.205.205,0,0,0,.031.093c0,1.664,0,2.856-.007,2.926a.4.4,0,0,0,.082.236L1.56,37.6a.692.692,0,0,0,.6.281l3.8-.639a1.187,1.187,0,0,1,.726.207c.238.166.49.324.754.477l0,3.008c-.008.124.112.244.3.29l3.853.921a.721.721,0,0,0,.625-.117l1.844-1.941a.862.862,0,0,1,.606-.188,20.831,20.831,0,0,0,2.511,0,.99.99,0,0,1,.676.292L19.5,41.928a.764.764,0,0,0,.644.237l4.007-.958a.256.256,0,0,0,.2-.22c.01-.066.006-3.053.006-3.053q.471-.267.894-.567a1.013,1.013,0,0,1,.66-.115l3.68.621a.649.649,0,0,0,.584-.173l1.6-2.226a.181.181,0,0,0,.034-.1c0-.106.007-3.858.006-4.061Zm-21.455.118q.262-.186.572-.364a11.017,11.017,0,0,1,9.971,0c.2.116.389.237.56.356a5.379,5.379,0,0,1-.606.4,11.111,11.111,0,0,1-7.648.861,8.541,8.541,0,0,1-2.26-.866,5.607,5.607,0,0,1-.589-.382" transform="translate(0 -10.502)" fill="#95a2b2"/>
        <g id="Grupo_182765-2" data-name="Grupo 182765" transform="translate(0.002 16.037)" opacity="0.15">
          <g id="Grupo_182764-2" data-name="Grupo 182764">
            <g id="Grupo_182763-2" data-name="Grupo 182763" clip-path="url(#clip-path-10)">
              <path id="Trazado_235997-2" data-name="Trazado 235997" d="M3.925,36.028a3.96,3.96,0,0,0-.005,1.256.405.405,0,0,1-.257.443L.2,38.824a.224.224,0,0,0-.163.221c0,.071,0,1.127,0,1.127A.206.206,0,0,1,0,40.088c0-1.97.008-5.261.008-5.55V34.3c.006.1.11.207.278.26L3.566,35.6a.449.449,0,0,1,.359.433" transform="translate(-0.004 -34.297)"/>
            </g>
          </g>
        </g>
        <g id="Grupo_182768-2" data-name="Grupo 182768" transform="translate(1.964 22.668)" opacity="0.15">
          <g id="Grupo_182767-2" data-name="Grupo 182767">
            <g id="Grupo_182766-2" data-name="Grupo 182766" clip-path="url(#clip-path-11)">
              <path id="Trazado_235998-2" data-name="Trazado 235998" d="M8.331,48.48v4.07a.592.592,0,0,0-.139,0l-3.8.637a.451.451,0,0,1-.194-.015V49.112a.493.493,0,0,0,.2.013l3.8-.64a.518.518,0,0,1,.131-.005" transform="translate(-4.2 -48.479)"/>
            </g>
          </g>
        </g>
        <g id="Grupo_182771-2" data-name="Grupo 182771" transform="translate(11.878 25.39)" opacity="0.15">
          <g id="Grupo_182770-2" data-name="Grupo 182770">
            <g id="Grupo_182769-2" data-name="Grupo 182769" clip-path="url(#clip-path-12)">
              <path id="Trazado_235999-2" data-name="Trazado 235999" d="M27.816,54.3v4.068a.587.587,0,0,0-.233.131l-1.844,1.941a.569.569,0,0,1-.336.134V56.5a.546.546,0,0,0,.344-.131l1.846-1.943a.581.581,0,0,1,.223-.131" transform="translate(-25.403 -54.299)"/>
            </g>
          </g>
        </g>
        <g id="Grupo_182774-2" data-name="Grupo 182774" transform="translate(17.417 25.366)" opacity="0.15">
          <g id="Grupo_182773-2" data-name="Grupo 182773">
            <g id="Grupo_182772-2" data-name="Grupo 182772" clip-path="url(#clip-path-13)">
              <path id="Trazado_236000-2" data-name="Trazado 236000" d="M39.7,56.459v4.065a.826.826,0,0,1-.367-.215L37.684,58.57a1.06,1.06,0,0,0-.435-.254V54.248a1.061,1.061,0,0,1,.443.257l1.652,1.736a.843.843,0,0,0,.359.218" transform="translate(-37.249 -54.248)"/>
            </g>
          </g>
        </g>
        <g id="Grupo_182777-2" data-name="Grupo 182777" transform="translate(23.318 22.678)" opacity="0.15">
          <g id="Grupo_182776-2" data-name="Grupo 182776">
            <g id="Grupo_182775-2" data-name="Grupo 182775" clip-path="url(#clip-path-14)">
              <path id="Trazado_236001-2" data-name="Trazado 236001" d="M52.211,48.5v4.068a.868.868,0,0,0-.4.121,10.489,10.489,0,0,1-.894.567s.006-.93.005-1.057a.383.383,0,0,0-.042-.165l-.963-1.907a.346.346,0,0,1,.121-.483,11.221,11.221,0,0,0,1.781-1.02.8.8,0,0,1,.393-.123" transform="translate(-49.868 -48.499)"/>
            </g>
          </g>
        </g>
        <g id="Grupo_182780-2" data-name="Grupo 182780" transform="translate(29.91 20.81)" opacity="0.15">
          <g id="Grupo_182779-2" data-name="Grupo 182779">
            <g id="Grupo_182778-2" data-name="Grupo 182778" clip-path="url(#clip-path-15)">
              <path id="Trazado_236002-2" data-name="Trazado 236002" d="M65.877,44.5c0,.2-.005,3.955-.005,4.062a.2.2,0,0,1-.037.1l-1.6,2.224a.463.463,0,0,1-.273.157V46.989a.5.5,0,0,0,.283-.16L65.843,44.6a.151.151,0,0,0,.034-.1" transform="translate(-63.965 -44.505)"/>
            </g>
          </g>
        </g>
        <path id="Trazado_236003-2" data-name="Trazado 236003" d="M7.469,20.957a.064.064,0,0,0,0,.014.375.375,0,0,0,.043.154l.96,1.9a.345.345,0,0,1-.121.483c-.305.143-.6.295-.886.454a10.089,10.089,0,0,0-.893.57,1.032,1.032,0,0,1-.66.112l-3.679-.62a.649.649,0,0,0-.584.171l-1.6,2.226a.165.165,0,0,0-.034.1.1.1,0,0,1,0,.016c.007.1.11.206.28.258l3.275,1.039a.45.45,0,0,1,.358.434,3.951,3.951,0,0,0,0,1.255.407.407,0,0,1-.257.443L.2,31.067a.221.221,0,0,0-.164.219.419.419,0,0,0,.082.225l1.455,2.025a.68.68,0,0,0,.6.281l3.8-.639a1.16,1.16,0,0,1,.724.209,11.2,11.2,0,0,0,1.54.885c.225.111.351.308.276.455L7.469,36.794c-.073.148.053.309.282.367l3.856.92a.716.716,0,0,0,.622-.115l1.846-1.941a.876.876,0,0,1,.6-.19,20.817,20.817,0,0,0,2.51,0,1,1,0,0,1,.678.291l1.652,1.738a.772.772,0,0,0,.642.238l4.009-.96a.28.28,0,0,0,.164-.428l-.961-1.905a.347.347,0,0,1,.12-.483,11.243,11.243,0,0,0,1.78-1.022,1,1,0,0,1,.659-.114l3.682.618a.646.646,0,0,0,.584-.17l1.6-2.225a.152.152,0,0,0,.034-.1h0a.013.013,0,0,0,0-.008.193.193,0,0,0-.026-.09v0a.437.437,0,0,0-.252-.175L28.275,30c-.23-.074-.386-.265-.358-.434a4.064,4.064,0,0,0,0-1.255.4.4,0,0,1,.257-.443l3.469-1.1a.218.218,0,0,0,.159-.211s0-.006,0-.009a.38.38,0,0,0-.081-.223L30.273,24.3a.693.693,0,0,0-.6-.281l-3.8.637a1.175,1.175,0,0,1-.726-.207c-.237-.164-.49-.324-.753-.475s-.512-.28-.784-.411c-.227-.108-.353-.307-.278-.452l1.046-2.072a.172.172,0,0,0,.019-.081c0-.122-.114-.238-.3-.282l-3.857-.922a.72.72,0,0,0-.62.118l-1.845,1.941a.873.873,0,0,1-.605.188,20.274,20.274,0,0,0-2.512,0,.988.988,0,0,1-.678-.3l-1.651-1.736a.76.76,0,0,0-.644-.237l-4.009.956a.264.264,0,0,0-.207.265m14.579,5.949c.034.034.067.066.1.1s.046.05.068.074c.05.057.1.114.143.173s.1.139.15.209q.044.067.084.135l.038.065a2.492,2.492,0,0,1-.193,2.811,4.251,4.251,0,0,1-.956.946,5.307,5.307,0,0,1-.605.395,11.112,11.112,0,0,1-7.648.862,8.54,8.54,0,0,1-2.26-.866,5.447,5.447,0,0,1-.59-.382,3.952,3.952,0,0,1-1.2-1.337.054.054,0,0,1-.008-.018c-.014-.026-.027-.052-.04-.079a.909.909,0,0,1-.036-.084.575.575,0,0,1-.037-.089,2.487,2.487,0,0,1,.359-2.46c1.491-2.077,5.615-3.063,9.21-2.2a7.094,7.094,0,0,1,3.427,1.748" transform="translate(-0.009 -10.502)" fill="#12263f"/>
      </g>
    </g>
  </g>
</svg>
