<svg id="img-3" xmlns="http://www.w3.org/2000/svg" width="100.11" height="100.11" viewBox="0 0 100.11 100.11">
  <path id="Trazado_874021" data-name="Trazado 874021" d="M50.055,0A50.055,50.055,0,1,1,0,50.055,50.055,50.055,0,0,1,50.055,0Z" transform="translate(0 0)" fill="#283f65"/>
  <g id="sitio-web" transform="translate(16.837 22.066)">
    <path id="Trazado_874995" data-name="Trazado 874995" d="M68.491,11.246H11.723a4.837,4.837,0,0,0-4.833,4.84V61.314a4.837,4.837,0,0,0,4.833,4.84H68.494a4.837,4.837,0,0,0,4.833-4.84V16.086a4.837,4.837,0,0,0-4.836-4.84Z" transform="translate(-6.89 -11.246)" fill="#f6f6f6"/>
    <path id="Trazado_874996" data-name="Trazado 874996" d="M68.491,11.246H11.723a4.837,4.837,0,0,0-4.833,4.84V24.1H73.327V16.086a4.837,4.837,0,0,0-4.836-4.84Z" transform="translate(-6.89 -11.246)" fill="#e4d9fd"/>
    <g id="Grupo_1100179" data-name="Grupo 1100179" transform="translate(6.74 28.647)">
      <path id="Trazado_874997" data-name="Trazado 874997" d="M33.924,60.581a1.018,1.018,0,0,0-1.331.548l-2.57,6.165-2.57-6.165a1.017,1.017,0,0,0-1.879,0l-2.57,6.165-2.57-6.165a1.018,1.018,0,1,0-1.879.782l3.509,8.422a1.018,1.018,0,0,0,1.879,0l2.572-6.169,2.57,6.165a1.017,1.017,0,0,0,1.879,0l3.509-8.422a1.017,1.017,0,0,0-.551-1.327Z" transform="translate(-18.478 -60.502)" fill="#c5c5c5"/>
      <path id="Trazado_874998" data-name="Trazado 874998" d="M65.628,60.58a1.018,1.018,0,0,0-1.331.548l-2.57,6.165-2.57-6.165a1.017,1.017,0,0,0-1.879,0l-2.57,6.165-2.57-6.165a1.018,1.018,0,0,0-1.879.783l3.51,8.422a1.017,1.017,0,0,0,1.879,0l2.57-6.169,2.57,6.165a1.017,1.017,0,0,0,1.879,0l3.51-8.422a1.018,1.018,0,0,0-.548-1.328Z" transform="translate(-31.743 -60.501)" fill="#c5c5c5"/>
      <path id="Trazado_874999" data-name="Trazado 874999" d="M97.333,60.581A1.018,1.018,0,0,0,96,61.129l-2.57,6.165-2.57-6.165a1.017,1.017,0,0,0-1.879,0l-2.57,6.165-2.57-6.165a1.018,1.018,0,1,0-1.879.782l3.509,8.422a1.017,1.017,0,0,0,1.879,0l2.567-6.169,2.57,6.165a1.018,1.018,0,0,0,1.879,0l3.509-8.422a1.017,1.017,0,0,0-.546-1.327Z" transform="translate(-45.008 -60.502)" fill="#c5c5c5"/>
    </g>
    <circle id="Elipse_11585" data-name="Elipse 11585" cx="2.283" cy="2.283" r="2.283" transform="translate(5.095 4.14)" fill="#ceff27"/>
    <path id="Trazado_875000" data-name="Trazado 875000" d="M33.671,18.364a2.283,2.283,0,1,0,2.283,2.283,2.283,2.283,0,0,0-2.283-2.283Z" transform="translate(-17.14 -14.224)" fill="#0feeff"/>
    <circle id="Elipse_11586" data-name="Elipse 11586" cx="2.283" cy="2.283" r="2.283" transform="translate(23.403 4.14)" fill="#fe80a7"/>
    <path id="Trazado_875001" data-name="Trazado 875001" d="M28.867,93.17l-5.459,5.46,2.518,2.518,2.518,2.518L33.9,98.207l2.729,2.729L41.6,85.472,26.137,90.441Z" transform="translate(-13.801 -42.302)" fill="#7b40f2"/>
  </g>
</svg>
